<svg width="960" height="720" viewBox="0 0 960 720" fill="none" xmlns="http://www.w3.org/2000/svg">
  <rect width="960" height="720" rx="36" fill="#EEF4FF"/>
  <rect x="0" y="430" width="960" height="290" fill="#E3ECFF"/>
  <rect x="120" y="242" width="328" height="210" rx="22" fill="#FFFFFF" stroke="#BCD0F8" stroke-width="8"/>
  <path d="M98 268L284 150L470 268" stroke="#2A56C6" stroke-width="18" stroke-linecap="round" stroke-linejoin="round"/>
  <rect x="208" y="320" width="154" height="132" rx="12" fill="#EAF1FF"/>
  <rect x="434" y="334" width="340" height="26" rx="8" fill="#2F5BD3"/>
  <rect x="434" y="372" width="340" height="24" rx="8" fill="#4C74D8"/>
  <rect x="434" y="410" width="340" height="24" rx="8" fill="#5C83E2"/>
  <path d="M454 334V504" stroke="#345ECA" stroke-width="10"/>
  <path d="M524 334V504" stroke="#345ECA" stroke-width="10"/>
  <path d="M594 334V504" stroke="#345ECA" stroke-width="10"/>
  <path d="M664 334V504" stroke="#345ECA" stroke-width="10"/>
  <path d="M734 334V504" stroke="#345ECA" stroke-width="10"/>
  <path d="M520 458L450 520" stroke="#284DB8" stroke-width="12" stroke-linecap="round"/>
  <path d="M688 458L758 520" stroke="#284DB8" stroke-width="12" stroke-linecap="round"/>
  <rect x="390" y="504" width="420" height="22" rx="8" fill="#1F45A8"/>
  <rect x="82" y="560" width="796" height="82" rx="18" fill="#D3E1FB"/>
</svg>