<svg width="960" height="720" viewBox="0 0 960 720" fill="none" xmlns="http://www.w3.org/2000/svg">
  <rect width="960" height="720" rx="36" fill="#EEF4FF"/>
  <circle cx="756" cy="158" r="92" fill="#DCE8FF"/>
  <path d="M126 544L347 350L565 544H126Z" fill="#1F45A8"/>
  <path d="M258 536V400H438V536" fill="#F7FAFF"/>
  <rect x="190" y="352" width="308" height="214" rx="18" fill="#FFFFFF" stroke="#BFD0F5" stroke-width="8"/>
  <path d="M168 362L344 232L522 362" stroke="#2A56C6" stroke-width="18" stroke-linecap="round" stroke-linejoin="round"/>
  <rect x="234" y="408" width="100" height="126" rx="10" fill="#DCE8FF" stroke="#A6BCEB" stroke-width="6"/>
  <rect x="354" y="408" width="100" height="126" rx="10" fill="#DCE8FF" stroke="#A6BCEB" stroke-width="6"/>
  <path d="M234 452H334" stroke="#9AB3E6" stroke-width="6"/>
  <path d="M354 452H454" stroke="#9AB3E6" stroke-width="6"/>
  <rect x="566" y="302" width="236" height="264" rx="22" fill="#FFFFFF" stroke="#BFD0F5" stroke-width="8"/>
  <path d="M544 314L684 216L824 314" stroke="#2F5BD3" stroke-width="16" stroke-linecap="round" stroke-linejoin="round"/>
  <rect x="634" y="400" width="96" height="166" rx="10" fill="#DCE8FF"/>
  <rect x="606" y="352" width="56" height="56" rx="8" fill="#EAF1FF"/>
  <rect x="706" y="352" width="56" height="56" rx="8" fill="#EAF1FF"/>
  <rect x="78" y="566" width="804" height="78" rx="16" fill="#D7E5FF"/>
</svg>