<svg width="960" height="720" viewBox="0 0 960 720" fill="none" xmlns="http://www.w3.org/2000/svg">
  <rect width="960" height="720" rx="36" fill="#F2F7FF"/>
  <circle cx="774" cy="164" r="88" fill="#D8E6FF"/>
  <rect x="116" y="288" width="312" height="280" rx="20" fill="#FFFFFF" stroke="#C0D1F6" stroke-width="8"/>
  <path d="M96 314L272 200L448 314" stroke="#244BB8" stroke-width="18" stroke-linecap="round" stroke-linejoin="round"/>
  <rect x="192" y="380" width="74" height="74" rx="10" fill="#E7EFFF"/>
  <rect x="288" y="380" width="74" height="74" rx="10" fill="#E7EFFF"/>
  <rect x="470" y="316" width="330" height="252" rx="22" fill="#F9FBFF" stroke="#AFC4F3" stroke-width="8"/>
  <path d="M454 334L634 230L814 334" stroke="#2F5BD3" stroke-width="16" stroke-linecap="round" stroke-linejoin="round"/>
  <path d="M526 356V548" stroke="#9DB6E8" stroke-width="6"/>
  <path d="M592 356V548" stroke="#9DB6E8" stroke-width="6"/>
  <path d="M658 356V548" stroke="#9DB6E8" stroke-width="6"/>
  <path d="M724 356V548" stroke="#9DB6E8" stroke-width="6"/>
  <path d="M494 404H776" stroke="#9DB6E8" stroke-width="6"/>
  <path d="M494 452H776" stroke="#9DB6E8" stroke-width="6"/>
  <path d="M494 500H776" stroke="#9DB6E8" stroke-width="6"/>
  <rect x="82" y="566" width="796" height="76" rx="18" fill="#D6E4FF"/>
</svg>